<svg width="24" height="24" viewBox="0 0 24 24" fill="none" xmlns="http://www.w3.org/2000/svg">
<g clip-path="url(#clip0_12678_29004)">
<path d="M0 12C0 6.34315 0 3.51472 1.75736 1.75736C3.51472 0 6.34315 0 12 0C17.6569 0 20.4853 0 22.2426 1.75736C24 3.51472 24 6.34315 24 12C24 17.6569 24 20.4853 22.2426 22.2426C20.4853 24 17.6569 24 12 24C6.34315 24 3.51472 24 1.75736 22.2426C0 20.4853 0 17.6569 0 12Z" fill="#34C724"/>
<path d="M6.88815 7.53505C7.49693 7.12393 8.20364 7 8.67613 7H13.875C13.5298 7 13.25 7.27982 13.25 7.625C13.25 7.97018 13.5298 8.25 13.875 8.25H8.67613C8.38158 8.25 7.93773 8.33459 7.58771 8.57097C7.27219 8.78404 7 9.13734 7 9.79791C7 10.4595 7.27338 10.821 7.59233 11.0406C7.9442 11.2828 8.38762 11.371 8.67613 11.371H15.3733C15.8499 11.371 16.5475 11.4998 17.1451 11.9179C17.7758 12.3592 18.25 13.0948 18.25 14.1809C18.25 15.2666 17.7762 16.0038 17.1467 16.4473C16.5499 16.8678 15.8521 17 15.3733 17H10.125C10.4702 17 10.75 16.7202 10.75 16.375C10.75 16.0298 10.4702 15.75 10.125 15.75H15.3733C15.6615 15.75 16.0896 15.663 16.4268 15.4254C16.7314 15.2108 17 14.851 17 14.1809C17 13.5111 16.7318 13.1543 16.4285 12.9421C16.092 12.7067 15.6637 12.621 15.3733 12.621H8.67613C8.1976 12.621 7.49046 12.488 6.88352 12.0702C6.24366 11.6297 5.75 10.8921 5.75 9.79791C5.75 8.70263 6.24486 7.96947 6.88815 7.53505Z" fill="white"/>
<path d="M10.125 15.75C9.77982 15.75 9.5 16.0298 9.5 16.375C9.5 16.7202 9.77982 17 10.125 17H6.375C6.02982 17 5.75 16.7202 5.75 16.375C5.75 16.0298 6.02982 15.75 6.375 15.75H10.125Z" fill="white"/>
<path d="M13.875 8.25C14.2202 8.25 14.5 7.97018 14.5 7.625C14.5 7.27982 14.2202 7 13.875 7H17.5909C17.9361 7 18.2159 7.27982 18.2159 7.625C18.2159 7.97018 17.9361 8.25 17.5909 8.25H13.875Z" fill="white"/>
<path fill-rule="evenodd" clip-rule="evenodd" d="M13.875 7C13.5298 7 13.25 7.27982 13.25 7.625C13.25 7.97018 13.5298 8.25 13.875 8.25C14.2202 8.25 14.5 7.97018 14.5 7.625C14.5 7.27982 14.2202 7 13.875 7ZM12 7.625C12 6.58947 12.8395 5.75 13.875 5.75C14.9105 5.75 15.75 6.58947 15.75 7.625C15.75 8.66053 14.9105 9.5 13.875 9.5C12.8395 9.5 12 8.66053 12 7.625Z" fill="white"/>
<path fill-rule="evenodd" clip-rule="evenodd" d="M10.125 15.75C9.77982 15.75 9.5 16.0298 9.5 16.375C9.5 16.7202 9.77982 17 10.125 17C10.4702 17 10.75 16.7202 10.75 16.375C10.75 16.0298 10.4702 15.75 10.125 15.75ZM8.25 16.375C8.25 15.3395 9.08947 14.5 10.125 14.5C11.1605 14.5 12 15.3395 12 16.375C12 17.4105 11.1605 18.25 10.125 18.25C9.08947 18.25 8.25 17.4105 8.25 16.375Z" fill="white"/>
</g>
<defs>
<clipPath id="clip0_12678_29004">
<rect width="24" height="24" fill="white"/>
</clipPath>
</defs>
</svg>
