<svg width="20" height="20" viewBox="0 0 20 20" fill="none" xmlns="http://www.w3.org/2000/svg">
<path d="M7.5 16.25C7.25 16.25 7 16.0833 6.91667 15.8333L6.25 13.5C5.91667 12.4167 5.16667 11.6667 4.08333 11.3333L1.66667 10.5833C1.41667 10.5 1.25 10.25 1.25 10C1.25 9.75 1.41667 9.5 1.66667 9.41667L4 8.75C5.08333 8.41667 5.83333 7.66667 6.16667 6.58333L6.91667 4.16667C7 3.91667 7.25 3.75 7.5 3.75C7.75 3.75 8 3.91667 8.08333 4.16667L8.75 6.5C9.08333 7.58333 9.83333 8.33333 10.9167 8.66667L13.25 9.33333C13.5 9.41667 13.6667 9.66667 13.6667 9.91667C13.6667 10.1667 13.5 10.4167 13.25 10.5L10.9167 11.1667C9.83333 11.5 9.08333 12.25 8.75 13.3333L8.08333 15.8333C8 16.0833 7.75 16.25 7.5 16.25ZM15 8.75C14.75 8.75 14.5 8.58333 14.4167 8.25L14.1667 7.41667C14 6.66667 13.3333 6 12.5833 5.83333L11.75 5.58333C11.5 5.5 11.25 5.25 11.25 5C11.25 4.75 11.4167 4.5 11.75 4.41667L12.5833 4.16667C13.3333 4 14 3.33333 14.1667 2.58333L14.4167 1.75C14.5 1.5 14.75 1.25 15 1.25C15.25 1.25 15.5 1.41667 15.5833 1.75L15.8333 2.58333C16 3.33333 16.6667 4 17.4167 4.16667L18.25 4.41667C18.5 4.5 18.75 4.75 18.75 5C18.75 5.25 18.5833 5.5 18.25 5.58333L17.4167 5.83333C16.6667 6 16 6.66667 15.8333 7.41667L15.5833 8.25C15.5 8.58333 15.25 8.75 15 8.75ZM13.75 18.75C13.5 18.75 13.25 18.5833 13.1667 18.3333L12.8333 17.3333C12.75 17 12.4167 16.6667 12.0833 16.5833L11.0833 16.25C10.8333 16.1667 10.6667 15.9167 10.6667 15.6667C10.6667 15.4167 10.8333 15.1667 11.0833 15.0833L12.0833 14.75C12.4167 14.6667 12.75 14.3333 12.8333 14L13.1667 13C13.25 12.75 13.5 12.5833 13.75 12.5833C14 12.5833 14.25 12.75 14.3333 13L14.6667 14C14.75 14.3333 15.0833 14.6667 15.4167 14.75L16.4167 15.0833C16.6667 15.1667 16.8333 15.4167 16.8333 15.6667C16.8333 15.9167 16.6667 16.1667 16.4167 16.25L15.4167 16.5833C15.0833 16.6667 14.75 17 14.6667 17.3333L14.3333 18.3333C14.25 18.5833 14 18.75 13.75 18.75Z" fill="white"/>
</svg>
