<svg width="16" height="16" viewBox="0 0 16 16" fill="none" xmlns="http://www.w3.org/2000/svg">
<g clip-path="url(#clip0_10903_4317)">
<path fill-rule="evenodd" clip-rule="evenodd" d="M3.12029 5.58903C3.63397 6.893 4.66634 8.4376 6.1144 9.88566C7.56245 11.3337 9.10705 12.3661 10.411 12.8798C11.0641 13.137 11.6262 13.2521 12.0685 13.246C12.5065 13.24 12.7813 13.1182 12.9498 12.9498C13.1182 12.7814 13.24 12.5065 13.246 12.0685C13.2521 11.6262 13.137 11.0641 12.8797 10.4111C12.3661 9.10708 11.3337 7.56248 9.88563 6.11442C8.43757 4.66636 6.89297 3.634 5.589 3.12031C4.93595 2.86305 4.37388 2.74796 3.93153 2.75406C3.49352 2.76009 3.2187 2.88186 3.05027 3.05029C2.88183 3.21873 2.76006 3.49354 2.75403 3.93156C2.74793 4.3739 2.86302 4.93597 3.12029 5.58903ZM1.42082 3.91319C1.43011 3.23857 1.62502 2.58993 2.10746 2.10749C2.5899 1.62504 3.23854 1.43014 3.91316 1.42085C4.58344 1.41161 5.32318 1.58253 6.0777 1.87977C7.58887 2.47508 9.28248 3.62566 10.8284 5.17162C12.3744 6.71757 13.525 8.41119 14.1203 9.92236C14.4175 10.6769 14.5884 11.4166 14.5792 12.0869C14.5699 12.7615 14.375 13.4102 13.8926 13.8926C13.4101 14.375 12.7615 14.5699 12.0869 14.5792C11.4166 14.5885 10.6769 14.4175 9.92233 14.1203C8.41116 13.525 6.71755 12.3744 5.17159 10.8285C3.62563 9.28251 2.47505 7.58889 1.87974 6.07773C1.58251 5.3232 1.41158 4.58347 1.42082 3.91319Z" fill="#3370FF"/>
<path fill-rule="evenodd" clip-rule="evenodd" d="M10.411 3.12031C9.10704 3.634 7.56244 4.66636 6.11438 6.11442C4.66632 7.56248 3.63396 9.10708 3.12027 10.4111C2.86301 11.0641 2.74791 11.6262 2.75401 12.0685C2.76004 12.5065 2.88182 12.7814 3.05025 12.9498C3.21868 13.1182 3.4935 13.24 3.93151 13.246C4.37386 13.2521 4.93593 13.137 5.58898 12.8798C6.89296 12.3661 8.43756 11.3337 9.88561 9.88565C11.3337 8.43759 12.366 6.893 12.8797 5.58902C13.137 4.93597 13.2521 4.3739 13.246 3.93155C13.2399 3.49354 13.1182 3.21872 12.9497 3.05029C12.7813 2.88186 12.5065 2.76008 12.0685 2.75405C11.6261 2.74795 11.0641 2.86305 10.411 3.12031ZM12.0869 1.42084C12.7615 1.43014 13.4101 1.62504 13.8926 2.10748C14.375 2.58992 14.5699 3.23856 14.5792 3.91318C14.5884 4.58346 14.4175 5.3232 14.1203 6.07772C13.525 7.58889 12.3744 9.2825 10.8284 10.8285C9.28246 12.3744 7.58885 13.525 6.07768 14.1203C5.32316 14.4175 4.58342 14.5885 3.91314 14.5792C3.23852 14.5699 2.58988 14.375 2.10744 13.8926C1.625 13.4102 1.4301 12.7615 1.4208 12.0869C1.41157 11.4166 1.58249 10.6769 1.87972 9.92235C2.47503 8.41118 3.62561 6.71757 5.17157 5.17161C6.71753 3.62565 8.41114 2.47507 9.92231 1.87976C10.6768 1.58253 11.4166 1.41161 12.0869 1.42084Z" fill="#3370FF"/>
</g>
<defs>
<clipPath id="clip0_10903_4317">
<rect width="16" height="16" fill="white"/>
</clipPath>
</defs>
</svg>
