<svg width="20" height="20" viewBox="0 0 20 20" fill="none" xmlns="http://www.w3.org/2000/svg">
<path d="M3.18415 4.04678C3.99587 3.49862 4.93815 3.33337 5.56813 3.33337H12.5C12.0397 3.33337 11.6666 3.70647 11.6666 4.16671C11.6666 4.62694 12.0397 5.00004 12.5 5.00004H5.56813C5.1754 5.00004 4.58359 5.11283 4.1169 5.428C3.69621 5.71209 3.33329 6.18316 3.33329 7.06392C3.33329 7.94608 3.69781 8.42805 4.12306 8.72081C4.59223 9.04379 5.18345 9.16132 5.56813 9.16132H14.4977C15.1331 9.16132 16.0633 9.3331 16.86 9.89052C17.7011 10.4789 18.3333 11.4598 18.3333 12.9079C18.3333 14.3555 17.7016 15.3385 16.8623 15.9298C16.0665 16.4905 15.1361 16.6667 14.4977 16.6667H7.49996C7.9602 16.6667 8.33329 16.2936 8.33329 15.8334C8.33329 15.3731 7.9602 15 7.49996 15H14.4977C14.8819 15 15.4527 14.8841 15.9024 14.5673C16.3085 14.2812 16.6666 13.8014 16.6666 12.9079C16.6666 12.0149 16.3091 11.5391 15.9046 11.2562C15.4559 10.9423 14.8849 10.828 14.4977 10.828H5.56813C4.9301 10.828 3.98723 10.6507 3.17799 10.0936C2.32484 9.50629 1.66663 8.52289 1.66663 7.06392C1.66663 5.60354 2.32643 4.62601 3.18415 4.04678Z" fill="white"/>
<path d="M7.49996 15C7.03972 15 6.66663 15.3731 6.66663 15.8334C6.66663 16.2936 7.03972 16.6667 7.49996 16.6667H2.49996C2.03972 16.6667 1.66663 16.2936 1.66663 15.8334C1.66663 15.3731 2.03972 15 2.49996 15H7.49996Z" fill="white"/>
<path d="M12.5 5.00004C12.9602 5.00004 13.3333 4.62694 13.3333 4.16671C13.3333 3.70647 12.9602 3.33337 12.5 3.33337H17.4545C17.9147 3.33337 18.2878 3.70647 18.2878 4.16671C18.2878 4.62694 17.9147 5.00004 17.4545 5.00004H12.5Z" fill="white"/>
<path fill-rule="evenodd" clip-rule="evenodd" d="M12.5 3.33329C12.0398 3.33329 11.6667 3.70639 11.6667 4.16663C11.6667 4.62686 12.0398 4.99996 12.5 4.99996C12.9602 4.99996 13.3333 4.62686 13.3333 4.16663C13.3333 3.70639 12.9602 3.33329 12.5 3.33329ZM10 4.16663C10 2.78591 11.1193 1.66663 12.5 1.66663C13.8807 1.66663 15 2.78591 15 4.16663C15 5.54734 13.8807 6.66663 12.5 6.66663C11.1193 6.66663 10 5.54734 10 4.16663Z" fill="white"/>
<path fill-rule="evenodd" clip-rule="evenodd" d="M7.5 15C7.03976 15 6.66667 15.3731 6.66667 15.8334C6.66667 16.2936 7.03976 16.6667 7.5 16.6667C7.96024 16.6667 8.33333 16.2936 8.33333 15.8334C8.33333 15.3731 7.96024 15 7.5 15ZM5 15.8334C5 14.4527 6.11929 13.3334 7.5 13.3334C8.88071 13.3334 10 14.4527 10 15.8334C10 17.2141 8.88071 18.3334 7.5 18.3334C6.11929 18.3334 5 17.2141 5 15.8334Z" fill="white"/>
</svg>
